<?xml version="1.0" standalone="no"?>
<!DOCTYPE svg PUBLIC "-//W3C//DTD SVG 20010904//EN"
 "http://www.w3.org/TR/2001/REC-SVG-20010904/DTD/svg10.dtd">
<svg version="1.0" xmlns="http://www.w3.org/2000/svg"
 width="1377.000000pt" height="300.000000pt" viewBox="0 0 1377.000000 300.000000"
 preserveAspectRatio="xMidYMid meet">

<g transform="translate(0.000000,300.000000) scale(0.100000,-0.100000)"
fill="#000000" stroke="none">
<path d="M0 1500 l0 -1500 6885 0 6885 0 0 1500 0 1500 -6885 0 -6885 0 0
-1500z m8700 1163 c-103 -3 -117 -5 -132 -24 -10 -12 -18 -18 -18 -13 0 4 7
16 17 26 14 16 31 18 132 16 l116 -2 -115 -3z m614 -15 c13 -18 16 -52 14
-188 l-2 -165 -6 172 c-3 95 -10 177 -15 182 -6 6 -62 12 -125 14 l-115 3 117
2 c111 2 118 1 132 -20z m-757 -235 c-2 -27 -3 -5 -3 47 0 52 1 74 3 48 2 -27
2 -69 0 -95z m113 98 c22 -41 -1 -81 -46 -81 -22 0 -24 4 -24 50 0 49 1 50 30
50 19 0 33 -7 40 -19z m190 -8 c0 -21 3 -24 12 -15 18 18 33 15 18 -3 -10 -12
-10 -19 -2 -27 21 -21 13 -32 -8 -13 -18 16 -20 16 -20 2 0 -10 -4 -17 -10
-17 -5 0 -10 23 -10 50 0 28 5 50 10 50 6 0 10 -12 10 -27z m263 20 c-41 -5
-45 -33 -5 -34 27 0 27 -1 5 -11 -13 -6 -23 -19 -23 -30 0 -10 -4 -18 -10 -18
-5 0 -10 23 -10 50 l0 50 38 -2 c36 -1 36 -1 5 -5z m87 -43 c0 -27 -4 -50 -10
-50 -5 0 -10 23 -10 50 0 28 5 50 10 50 6 0 10 -22 10 -50z m-458 5 c8 -19 8
-28 -2 -40 -23 -28 -60 -13 -60 25 0 12 29 40 41 40 5 0 14 -11 21 -25z m62
19 c9 -3 16 -14 16 -23 0 -13 -2 -13 -9 -2 -5 8 -16 11 -25 8 -18 -7 -20 -16
-7 -36 8 -13 12 -13 27 0 15 12 17 12 12 -1 -2 -8 -14 -16 -26 -18 -26 -4 -41
40 -22 63 14 17 13 17 34 9z m154 -10 c5 -9 7 -27 4 -40 -6 -34 -55 -31 -60 4
-6 42 37 70 56 36z m61 7 c3 -1 -2 -7 -11 -13 -9 -7 -19 -24 -21 -38 -3 -16
-5 -10 -6 17 -1 34 2 41 17 38 9 -2 19 -4 21 -4z m251 -6 c15 -18 5 -35 -21
-35 -10 0 -19 -5 -19 -11 0 -6 9 -9 20 -6 11 3 20 1 20 -4 0 -5 -11 -9 -25 -9
-18 0 -26 7 -31 25 -11 43 29 72 56 40z m-113 -47 c-2 -13 -4 -5 -4 17 -1 22
1 32 4 23 2 -10 2 -28 0 -40z m-6059 25 c-32 -2 -84 -2 -115 0 -32 2 -6 3 57
3 63 0 89 -1 58 -3z m480 0 c-21 -2 -55 -2 -75 0 -21 2 -4 4 37 4 41 0 58 -2
38 -4z m-691 -385 c-1 -68 -3 -15 -3 117 0 132 2 187 3 123 2 -64 2 -172 0
-240z m120 185 c-2 -16 -4 -3 -4 27 0 30 2 43 4 28 2 -16 2 -40 0 -55z m355
32 c-4 -5 -5 -21 -3 -35 2 -17 -1 -22 -7 -15 -10 9 -16 43 -13 73 1 10 4 10
15 0 8 -7 11 -17 8 -23z m-269 -6 c6 -10 7 -24 2 -35 -8 -17 -9 -16 -13 9 -4
34 -32 37 -32 2 0 -14 -4 -25 -10 -25 -5 0 -10 16 -10 36 0 32 2 35 26 32 15
-2 32 -10 37 -19z m80 7 c10 -25 -4 -84 -21 -91 -9 -3 -23 2 -31 11 -15 15
-14 16 6 10 12 -4 24 -2 29 5 5 8 2 10 -8 6 -9 -3 -21 0 -27 6 -12 12 -15 50
-4 60 12 13 51 7 56 -7z m75 -8 c3 -14 -3 -18 -23 -18 -16 0 -24 -4 -19 -11 3
-6 15 -9 25 -6 23 6 25 -8 3 -17 -9 -4 -23 -1 -30 5 -15 12 -19 51 -7 63 13
13 48 1 51 -16z m72 13 c0 -5 -10 -7 -22 -3 -14 3 -19 2 -14 -6 4 -7 14 -12
22 -12 10 0 14 -8 12 -22 -4 -28 -19 -32 -43 -13 -19 15 -19 15 9 9 21 -5 27
-4 22 5 -4 6 -13 11 -21 11 -17 0 -28 17 -20 30 8 12 55 13 55 1z m67 -43 c-2
-13 -4 -5 -4 17 -1 22 1 32 4 23 2 -10 2 -28 0 -40z m81 23 c4 -28 -21 -53
-44 -44 -14 5 -19 54 -7 67 16 15 48 1 51 -23z m80 -8 c2 -19 -1 -33 -7 -33
-6 0 -11 14 -11 31 0 26 -2 29 -14 19 -8 -6 -17 -21 -19 -33 -3 -13 -5 -8 -6
14 -1 33 1 36 27 35 23 -1 27 -6 30 -33z m5006 1 c3 -8 2 -12 -4 -9 -6 3 -10
10 -10 16 0 14 7 11 14 -7z m746 -9 c-7 -9 -27 -14 -49 -13 l-36 1 35 4 c19 3
39 9 45 14 15 15 19 10 5 -6z m-337 -12 c-73 -2 -193 -2 -265 0 -73 1 -14 3
132 3 146 0 205 -2 133 -3z m3770 -10 c-7 -2 -21 -2 -30 0 -10 3 -4 5 12 5 17
0 24 -2 18 -5z m220 0 c-7 -2 -21 -2 -30 0 -10 3 -4 5 12 5 17 0 24 -2 18 -5z
m-286 -9 c-3 -3 -12 -4 -19 -1 -8 3 -5 6 6 6 11 1 17 -2 13 -5z m340 0 c-3 -3
-12 -4 -19 -1 -8 3 -5 6 6 6 11 1 17 -2 13 -5z m-380 -10 c-3 -3 -12 -4 -19
-1 -8 3 -5 6 6 6 11 1 17 -2 13 -5z m-9422 -44 c4 -6 -7 -10 -24 -10 -40 0
-43 -29 -3 -31 l27 -2 -28 -4 c-23 -4 -28 -9 -24 -24 3 -10 1 -22 -4 -25 -10
-6 -13 89 -2 99 10 11 51 8 58 -3z m22 -72 c-2 -18 -4 -6 -4 27 0 33 2 48 4
33 2 -15 2 -42 0 -60z m79 27 c9 -36 -2 -57 -28 -53 -26 3 -36 41 -18 64 19
22 39 17 46 -11z m35 -8 l0 -22 9 23 c5 12 14 22 20 22 5 0 10 -10 10 -22 1
-23 1 -23 15 2 17 30 20 13 4 -27 l-11 -28 -12 24 -13 23 -6 -23 c-8 -30 -22
-16 -32 30 -5 23 -4 31 4 27 6 -4 11 -17 12 -29z m9049 -1 c0 -2 -8 -10 -17
-17 -16 -13 -17 -12 -4 4 13 16 21 21 21 13z m990 -103 c0 -8 -9 0 -50 45
l-45 47 48 -45 c26 -24 47 -45 47 -47z m-4443 -221 c-1 -53 -3 -7 -3 103 0
110 2 154 3 97 2 -57 2 -147 0 -200z m3413 295 c0 -2 -17 -19 -37 -38 l-38
-34 34 38 c33 34 41 42 41 34z m-1557 -14 c-51 -2 -135 -2 -185 0 -51 1 -10 3
92 3 102 0 143 -2 93 -3z m394 1 c-3 -3 -12 -4 -19 -1 -8 3 -5 6 6 6 11 1 17
-2 13 -5z m50 -96 c-2 -13 -4 -5 -4 17 -1 22 1 32 4 23 2 -10 2 -28 0 -40z
m-661 28 c15 -12 17 -18 8 -33 -6 -10 -21 -19 -33 -21 -11 -2 -21 -10 -21 -17
0 -8 -4 -17 -10 -20 -6 -4 -10 15 -10 49 0 52 2 56 23 56 13 0 32 -6 43 -14z
m1704 0 c0 -2 -8 -10 -17 -17 -16 -13 -17 -12 -4 4 13 16 21 21 21 13z m391
-30 c10 9 19 12 19 6 0 -6 -5 -14 -10 -17 -7 -4 -6 -13 1 -26 6 -12 8 -23 5
-26 -3 -3 -8 2 -12 11 -8 21 -21 21 -27 -1 -3 -10 -5 7 -4 37 0 30 2 42 4 27
4 -28 5 -28 24 -11z m89 20 c0 -8 10 -16 23 -18 17 -2 22 -10 22 -33 0 -25 -4
-31 -26 -33 -23 -3 -27 1 -32 35 -9 52 -9 63 3 63 6 0 10 -6 10 -14z m278 -12
c6 -1 17 -2 22 -2 6 -1 9 -19 8 -39 -1 -37 -1 -37 -5 -5 -6 42 -33 44 -33 2 0
-16 -4 -30 -10 -30 -5 0 -10 24 -9 53 0 28 3 45 7 37 4 -8 13 -15 20 -16z
m-115 -33 c1 -23 -1 -41 -4 -41 -8 0 -16 63 -11 80 7 20 14 3 15 -39z m-2292
26 c-6 -6 -11 -21 -11 -33 0 -13 -4 -26 -10 -29 -6 -4 -10 9 -10 32 0 32 4 39
21 40 17 2 19 -1 10 -10z m77 -15 c4 -26 -13 -52 -34 -52 -20 0 -33 32 -23 58
12 31 53 27 57 -6z m72 13 c15 -18 -1 -20 -18 -3 -15 15 -27 -14 -17 -39 6
-17 7 -17 19 -1 7 10 16 15 19 11 9 -9 -12 -33 -29 -33 -23 0 -40 46 -24 65
16 19 34 19 50 0z m75 -25 c0 -31 -3 -35 -25 -35 -19 0 -26 6 -28 23 -5 36 5
54 30 50 19 -2 23 -9 23 -38z m70 0 c0 -30 -3 -35 -24 -35 -13 0 -26 6 -29 13
-3 11 0 12 16 3 12 -6 23 -7 26 -2 3 4 -6 13 -19 19 -37 17 -30 46 10 40 16
-2 20 -10 20 -38z m70 0 c0 -23 -5 -36 -15 -37 -19 -4 -47 14 -37 23 3 4 13 1
21 -5 8 -7 17 -8 20 -3 3 5 -6 14 -19 20 -37 17 -30 46 10 40 16 -2 20 -10 20
-38z m32 -22 c-2 -13 -4 -3 -4 22 0 25 2 35 4 23 2 -13 2 -33 0 -45z m76 53
c4 -1 7 -17 7 -38 0 -20 -3 -33 -7 -29 -4 4 -8 17 -8 28 0 35 -23 32 -34 -4
l-9 -33 -1 41 c-1 43 -4 41 52 35z m85 -37 c-4 -57 -27 -79 -55 -51 -13 13
-14 17 -3 17 11 0 11 3 2 12 -27 27 -6 68 36 68 21 0 23 -3 20 -46z m1304 20
c7 -15 7 -28 -1 -40 -9 -16 -10 -14 -11 14 0 42 -22 39 -31 -4 l-7 -29 -1 33
c-1 41 -23 39 -32 -4 -6 -28 -7 -27 -8 8 -1 39 6 45 52 45 20 0 32 -7 39 -23z
m79 -17 c6 -37 5 -37 -28 -37 -26 0 -33 4 -33 20 0 13 7 20 19 20 11 0 23 5
27 11 5 8 -1 10 -20 7 -22 -4 -24 -3 -15 9 21 24 43 10 50 -30z m58 34 c3 -1
-2 -7 -11 -13 -9 -7 -19 -24 -21 -38 -3 -16 -5 -10 -6 17 -1 34 2 41 17 38 9
-2 19 -4 21 -4z m252 -34 c6 -37 6 -38 -24 -35 -39 4 -46 25 -13 38 31 11 35
25 6 17 -20 -5 -26 3 -13 17 17 16 38 -1 44 -37z m107 31 c7 -7 12 -16 12 -22
0 -6 -5 -5 -12 2 -18 18 -38 14 -38 -7 0 -25 20 -38 31 -20 4 7 11 10 15 6 12
-11 -12 -29 -32 -25 -31 5 -32 78 -1 78 7 0 18 -5 25 -12z m196 -24 c8 -21 18
-30 39 -32 34 -3 36 14 2 22 -14 4 -25 13 -25 21 0 15 34 30 50 20 18 -11 10
-23 -12 -19 l-23 5 23 -12 c12 -7 22 -20 22 -30 0 -15 -9 -17 -65 -17 -57 1
-65 3 -65 19 0 11 6 19 14 19 8 0 18 5 22 12 5 8 0 9 -14 6 -23 -6 -31 7 -9
15 21 9 30 2 41 -29z m236 -4 c6 -11 8 -20 6 -20 -3 0 -10 9 -16 20 -6 11 -8
20 -6 20 3 0 10 -9 16 -20z m-9997 -37 c-84 -2 -222 -2 -305 0 -84 1 -16 3
152 3 168 0 236 -2 153 -3z m6992 -21 c-3 -3 -11 0 -18 7 -9 10 -8 11 6 5 10
-3 15 -9 12 -12z m21 -38 c-11 -8 -25 -14 -30 -13 -6 0 -1 5 12 11 15 8 21 17
17 27 -5 13 -4 14 7 3 11 -11 10 -16 -6 -28z m1771 4 c-3 -8 -6 -5 -6 6 -1 11
2 17 5 13 3 -3 4 -12 1 -19z m-2269 1 c-17 -9 -18 -44 -20 -477 l-3 -467 -2
464 c-3 465 -1 492 31 491 6 0 3 -5 -6 -11z m1680 4 c-38 -2 -98 -2 -135 0
-38 2 -7 3 67 3 74 0 105 -1 68 -3z m102 -28 c0 -13 10 -31 22 -39 12 -9 18
-16 13 -16 -22 0 -37 19 -45 53 -4 22 -4 35 1 31 5 -3 9 -16 9 -29z m-1030 10
c15 -18 7 -19 -20 -3 -15 10 -22 10 -31 1 -10 -10 -8 -14 7 -18 55 -18 71 -49
32 -64 -28 -11 -58 3 -58 27 1 16 1 16 11 0 12 -21 49 -24 49 -4 0 8 -13 19
-30 25 -28 9 -38 29 -23 44 12 12 50 7 63 -8z m2110 -35 c0 -27 -4 -50 -10
-50 -5 0 -10 23 -10 50 0 28 5 50 10 50 6 0 10 -22 10 -50z m270 -4 c0 -51 -1
-53 -26 -52 -53 2 -58 66 -5 74 11 2 21 10 21 18 0 8 2 14 5 14 3 0 5 -24 5
-54z m70 44 c0 -5 -4 -10 -10 -10 -5 0 -10 5 -10 10 0 6 5 10 10 10 6 0 10 -4
10 -10z m-225 -54 c2 -50 -9 -53 -18 -6 -6 30 1 66 11 56 2 -3 6 -26 7 -50z
m542 -38 c-2 -18 -4 -4 -4 32 0 36 2 50 4 33 2 -18 2 -48 0 -65z m-2635 64
c-6 -2 -12 -14 -12 -27 0 -13 -4 -27 -10 -30 -6 -4 -10 10 -10 33 0 37 2 40
22 34 12 -3 17 -7 10 -10z m-49 -6 c7 -18 -1 -26 -25 -26 -10 0 -18 -5 -18
-11 0 -6 9 -9 20 -6 11 3 20 1 20 -5 0 -5 -12 -8 -27 -6 -28 3 -40 25 -29 54
7 18 52 18 59 0z m87 -12 c0 -22 17 -17 23 8 4 12 9 19 13 15 8 -7 -15 -67
-26 -67 -8 0 -30 45 -30 61 0 6 5 7 10 4 6 -3 10 -13 10 -21z m70 -9 c0 -19
-4 -35 -10 -35 -5 0 -10 16 -10 35 0 19 5 35 10 35 6 0 10 -16 10 -35z m69 18
c0 -11 -3 -13 -6 -5 -11 29 -46 4 -36 -25 3 -7 11 -13 18 -13 7 0 16 6 18 13
3 7 6 5 6 -5 2 -30 -47 -24 -55 6 -8 32 2 46 32 46 16 0 24 -5 23 -17z m79 -5
c3 -13 -3 -18 -22 -18 -14 0 -26 -5 -26 -11 0 -7 10 -9 28 -5 25 6 26 5 9 -8
-11 -8 -25 -12 -33 -9 -20 7 -28 42 -13 59 16 19 53 14 57 -8z m1416 7 c3 -8
1 -15 -4 -15 -6 0 -10 5 -10 10 0 6 -7 10 -15 10 -9 0 -15 -9 -15 -25 0 -26
25 -35 33 -12 2 6 8 9 12 5 10 -10 -13 -38 -31 -38 -19 0 -36 37 -29 60 8 24
50 27 59 5z m74 -16 c3 -30 -18 -52 -42 -43 -16 6 -23 54 -9 68 16 16 48 1 51
-25z m120 -6 c2 -19 -1 -33 -7 -33 -6 0 -11 14 -11 30 0 17 -4 30 -10 30 -5 0
-10 -13 -10 -30 0 -16 -4 -30 -10 -30 -5 0 -10 14 -10 30 0 38 -18 39 -26 3
-10 -48 -12 -49 -13 -5 l-1 43 48 -3 c45 -3 47 -4 50 -35z m80 9 c4 -28 -16
-55 -35 -48 -8 4 -13 -3 -14 -17 -1 -17 -3 -16 -9 8 -4 17 -8 43 -9 58 -1 26
2 28 32 25 25 -2 33 -8 35 -26z m102 24 c0 -2 3 -11 6 -20 5 -12 0 -16 -20
-16 -14 0 -26 -5 -26 -11 0 -7 10 -9 28 -4 26 6 26 6 9 -12 -13 -14 -21 -15
-35 -7 -35 22 -22 74 19 74 11 0 19 -2 19 -4z m118 -18 c3 -13 -3 -18 -22 -18
-14 0 -26 -5 -26 -11 0 -7 10 -9 25 -7 27 6 34 -6 10 -16 -26 -9 -45 5 -45 33
0 15 3 31 7 35 13 13 48 1 51 -16z m152 -13 c0 -19 -4 -35 -10 -35 -5 0 -10
16 -10 35 0 19 5 35 10 35 6 0 10 -16 10 -35z m68 22 c14 -11 16 -57 2 -57 -5
0 -10 12 -10 26 0 35 -23 26 -30 -12 -3 -17 -8 -24 -13 -18 -4 7 -4 25 -1 41
6 31 28 39 52 20z m-1010 -41 c-2 -10 -9 -6 -23 12 -15 21 -15 24 -2 13 15
-12 17 -11 18 5 1 17 2 17 6 2 2 -10 3 -24 1 -32z m-375 17 c-7 -2 -19 -2 -25
0 -7 3 -2 5 12 5 14 0 19 -2 13 -5z m-586 -65 c-2 -13 -4 -5 -4 17 -1 22 1 32
4 23 2 -10 2 -28 0 -40z m970 -20 c-3 -8 -6 -5 -6 6 -1 11 2 17 5 13 3 -3 4
-12 1 -19z m116 -40 c17 -2 22 -10 22 -33 0 -25 -4 -30 -27 -33 -28 -3 -28 -2
-27 50 1 29 3 45 6 36 2 -9 14 -18 26 -20z m247 23 c0 -5 9 -13 20 -16 16 -5
20 -14 18 -43 l-1 -37 -4 33 c-6 42 -33 44 -33 2 0 -16 -4 -30 -10 -30 -5 0
-10 23 -10 50 0 28 5 50 10 50 6 0 10 -4 10 -9z m330 -42 l0 -50 -32 3 c-29 3
-33 6 -33 33 0 23 5 31 23 33 12 2 22 10 22 18 0 8 5 14 10 14 6 0 10 -23 10
-51z m306 36 c-4 -11 1 -15 19 -15 29 0 39 -14 31 -46 -5 -19 -13 -24 -36 -24
-29 0 -30 1 -30 50 0 30 4 50 11 50 6 0 9 -7 5 -15z m83 -12 c-1 -16 -5 -39
-9 -53 -6 -20 -8 -14 -9 28 -1 28 3 52 9 52 6 0 10 -12 9 -27z m-4148 -551
c182 -2 208 -4 220 -20 11 -14 11 -15 -1 -4 -11 9 -100 12 -375 12 -275 0
-364 -3 -375 -12 -12 -11 -12 -10 -1 5 12 15 32 17 163 17 l149 0 -15 22 c-9
12 -16 27 -16 33 1 5 7 -1 15 -15 13 -22 15 6 17 255 l3 280 5 -285 5 -285
206 -3z m3322 519 c1 -23 -1 -41 -4 -41 -8 0 -16 63 -11 80 7 20 14 3 15 -39z
m635 18 c-6 -4 -8 -19 -4 -35 5 -19 4 -26 -2 -19 -10 9 -16 44 -13 73 1 10 4
10 15 0 9 -8 10 -15 4 -19z m-680 -10 c2 -13 8 -29 13 -35 6 -7 -2 -11 -26
-12 -29 -1 -35 2 -35 18 0 11 6 20 14 20 8 0 18 5 22 12 5 8 0 9 -14 6 -23 -6
-31 7 -9 15 21 9 32 1 35 -24z m106 25 c9 -3 16 -14 16 -23 0 -13 -2 -13 -9
-2 -5 8 -16 11 -25 8 -18 -7 -20 -16 -7 -36 8 -13 12 -13 27 0 15 12 17 12 12
-1 -2 -8 -16 -15 -29 -15 -28 0 -39 36 -19 61 14 16 13 16 34 8z m236 -8 c6
-8 10 -25 8 -38 -2 -17 -10 -23 -28 -23 -18 0 -26 6 -28 23 -3 22 13 52 28 52
4 0 13 -7 20 -14z m60 2 c0 -4 -4 -8 -9 -8 -6 0 -12 -15 -14 -32 -3 -30 -4
-29 -5 8 -2 30 2 41 13 41 8 0 15 -4 15 -9z m148 -5 c14 -25 -3 -63 -27 -63
-14 0 -23 9 -27 25 -11 44 35 75 54 38z m58 4 c4 -4 2 -7 -4 -7 -7 0 -12 -8
-12 -17 0 -10 -5 -25 -10 -33 -7 -11 -10 -4 -10 27 0 31 4 41 15 39 8 -1 18
-5 21 -9z m145 -30 c6 -37 6 -38 -24 -35 -39 4 -46 25 -13 38 31 11 35 25 6
17 -20 -5 -26 3 -13 17 17 16 38 -1 44 -37z m189 28 c15 -18 5 -35 -21 -35
-10 0 -19 -5 -19 -11 0 -6 9 -9 20 -6 11 3 20 1 20 -4 0 -5 -11 -9 -25 -9 -18
0 -26 7 -31 25 -11 43 29 72 56 40z m-1089 -82 c13 -16 12 -17 -3 -4 -10 7
-18 15 -18 17 0 8 8 3 21 -13z m412 -10 c-13 -2 -33 -2 -45 0 -13 2 -3 4 22 4
25 0 35 -2 23 -4z m707 4 c0 -1 -24 -25 -52 -52 l-53 -50 50 53 c46 48 55 57
55 49z m-1070 -52 c19 -19 32 -35 29 -35 -3 0 -20 16 -39 35 -19 19 -32 35
-29 35 3 0 20 -16 39 -35z m61 -52 c13 -16 12 -17 -3 -4 -10 7 -18 15 -18 17
0 8 8 3 21 -13z m899 3 c0 -2 -8 -10 -17 -17 -16 -13 -17 -12 -4 4 13 16 21
21 21 13z m-74 -51 c-11 -8 -25 -15 -30 -15 -6 1 0 7 14 15 32 19 40 18 16 0z
m-539 -71 c-3 -3 -12 -4 -19 -1 -8 3 -5 6 6 6 11 1 17 -2 13 -5z m66 -11 c-7
-2 -21 -2 -30 0 -10 3 -4 5 12 5 17 0 24 -2 18 -5z m220 0 c-7 -2 -19 -2 -25
0 -7 3 -2 5 12 5 14 0 19 -2 13 -5z m-116 -9 c-3 -3 -12 -4 -19 -1 -8 3 -5 6
6 6 11 1 17 -2 13 -5z m-10359 -181 c-10 -2 -26 -2 -35 0 -10 3 -2 5 17 5 19
0 27 -2 18 -5z m585 0 c-34 -2 -93 -2 -130 0 -37 2 -9 3 62 3 72 0 102 -1 68
-3z m-2303 -7 c0 -2 -7 -7 -16 -10 -8 -3 -12 -2 -9 4 6 10 25 14 25 6z m518
-3 c-49 -2 -127 -2 -175 0 -49 1 -9 3 87 3 96 0 136 -2 88 -3z m219 -100 c-2
-16 -4 -3 -4 27 0 30 2 43 4 28 2 -16 2 -40 0 -55z m890 0 c-2 -16 -4 -3 -4
27 0 30 2 43 4 28 2 -16 2 -40 0 -55z m1652 74 c-2 -1 -13 -9 -24 -17 -19 -14
-19 -14 -6 3 7 9 18 17 24 17 6 0 8 -1 6 -3z m494 -4 c-84 -2 -222 -2 -305 0
-84 1 -16 3 152 3 168 0 236 -2 153 -3z m-2047 -21 c17 -10 12 -81 -6 -92 -33
-21 -47 -11 -54 36 -3 25 -3 50 0 55 6 11 45 12 60 1z m94 -2 c0 -5 -5 -10
-11 -10 -5 0 -7 5 -4 10 3 6 8 10 11 10 2 0 4 -4 4 -10z m80 -45 c0 -51 -2
-55 -24 -55 -48 0 -62 56 -18 75 12 5 22 15 22 22 0 7 5 13 10 13 6 0 10 -25
10 -55z m320 40 c17 -20 6 -43 -25 -51 -14 -3 -25 -12 -25 -20 0 -8 -4 -14
-10 -14 -5 0 -10 23 -10 50 0 48 1 50 29 50 16 0 34 -7 41 -15z m1017 -258
c-1 -45 -3 -5 -3 88 0 94 2 130 3 82 2 -48 2 -125 0 -170z m-1455 231 c-6 -7
-12 -26 -15 -43 -3 -24 -4 -22 -6 13 -1 33 3 42 15 42 12 0 14 -3 6 -12z m38
-23 c0 -19 -4 -35 -10 -35 -5 0 -10 16 -10 35 0 19 5 35 10 35 6 0 10 -16 10
-35z m156 23 c11 -12 -8 -89 -23 -95 -8 -3 -22 2 -31 11 -10 9 -12 16 -5 16 7
0 15 -5 18 -10 7 -12 25 -4 25 11 0 6 -5 7 -10 4 -16 -10 -40 14 -40 40 0 13
6 25 13 28 15 6 44 3 53 -5z m73 -7 c8 -15 7 -20 -5 -25 -9 -3 -20 -4 -25 0
-5 3 -9 0 -9 -7 0 -6 8 -9 20 -6 23 6 27 -11 5 -19 -33 -13 -59 38 -33 64 17
17 36 15 47 -7z m247 -8 c3 -16 7 -33 9 -40 2 -7 -8 -11 -28 -10 -28 2 -32 6
-33 32 -2 38 2 45 26 45 13 0 22 -9 26 -27z m53 3 c19 43 22 22 3 -31 -10 -27
-24 -51 -32 -53 -13 -5 -13 -3 -1 12 11 13 12 22 2 42 -6 14 -11 33 -10 42 0
11 5 7 13 -11 l12 -28 13 27z m6294 -127 l22 -2 -22 -4 c-20 -4 -22 -11 -26
-86 -1 -45 -3 -8 -3 83 0 91 2 130 3 88 4 -72 5 -78 26 -79z m-8477 44 c3 -16
7 -33 9 -39 2 -6 -11 -11 -31 -12 -27 -1 -34 2 -34 18 0 10 9 22 20 25 11 3
20 11 20 16 0 13 -14 11 -28 -3 -7 -7 -12 -8 -12 -2 0 35 48 32 56 -3z m79
-13 c0 -28 -4 -36 -22 -38 -12 -2 -24 -11 -26 -20 -3 -9 -5 8 -6 39 -1 55 0
56 27 55 24 -1 27 -5 27 -36z m80 0 c0 -28 -4 -36 -22 -38 -12 -2 -24 -11 -26
-20 -3 -9 -5 8 -6 39 -1 55 0 56 27 55 24 -1 27 -5 27 -36z m158 14 c6 -15 5
-28 -2 -40 -9 -16 -10 -14 -11 14 0 42 -22 39 -31 -4 l-7 -29 -1 33 c-1 41
-23 39 -32 -4 -6 -26 -7 -25 -8 12 l-1 40 41 0 c33 -1 44 -6 52 -22z m35 -34
c-2 -24 -7 -45 -13 -47 -6 -2 -9 19 -7 53 3 36 7 53 14 46 5 -5 8 -29 6 -52z
m66 45 c4 -12 0 -14 -22 -10 l-27 5 28 -11 c18 -7 27 -17 25 -28 -4 -20 -49
-22 -56 -1 -5 13 -3 13 12 1 9 -8 19 -11 22 -8 9 9 -5 27 -22 27 -14 0 -19 21
-7 33 12 12 41 7 47 -8z m1544 -2 c-10 -2 -28 -2 -40 0 -13 2 -5 4 17 4 22 1
32 -1 23 -4z m1674 -26 c20 18 21 18 14 -4 -4 -12 -2 -31 4 -43 6 -11 7 -20 1
-20 -5 0 -11 7 -15 15 -7 20 -24 19 -29 -2 -3 -10 -5 7 -4 37 0 30 2 42 4 27
4 -28 5 -28 25 -10z m236 -28 c16 -1 16 -2 0 -6 -12 -3 -18 -17 -21 -46 -2
-23 -4 -6 -4 38 0 44 2 65 4 48 3 -22 10 -33 21 -34z m1090 29 c49 -6 36 -68
-14 -68 -22 0 -24 4 -23 53 1 28 3 44 6 35 2 -9 16 -18 31 -20z m49 -45 c-2
-16 -4 -3 -4 27 0 30 2 43 4 28 2 -16 2 -40 0 -55z m3263 50 c0 -21 3 -24 12
-15 18 18 33 15 18 -3 -10 -12 -10 -19 -2 -27 21 -21 13 -32 -8 -13 -18 16
-20 16 -20 2 0 -10 -4 -17 -10 -17 -5 0 -10 23 -10 50 0 28 5 50 10 50 6 0 10
-12 10 -27z m-4837 -32 c1 -23 -1 -41 -4 -41 -8 0 -16 63 -11 80 7 20 14 3 15
-39z m1130 0 c1 -23 -1 -41 -4 -41 -9 0 -18 62 -11 78 8 21 14 6 15 -37z
m1764 17 c-8 -5 -7 -14 1 -33 10 -21 10 -26 0 -23 -14 5 -27 55 -20 75 3 9 7
9 17 0 9 -8 9 -14 2 -19z m1761 1 c-6 -4 -8 -19 -6 -33 3 -14 2 -26 -2 -26 -9
0 -18 61 -12 79 2 7 8 7 17 -2 8 -8 9 -14 3 -18z m-6642 -5 c-11 -8 -25 -14
-30 -13 -6 0 -1 5 12 11 12 6 22 16 22 21 0 6 3 7 7 3 5 -4 -1 -14 -11 -22z
m1722 14 c6 -7 8 -25 5 -40 -7 -38 -50 -40 -59 -3 -10 41 29 72 54 43z m66 6
c23 -9 20 -21 -5 -20 -25 1 -33 -12 -20 -33 8 -13 12 -13 27 0 15 12 17 12 12
-1 -2 -8 -14 -16 -26 -18 -26 -4 -41 40 -22 63 14 17 13 17 34 9z m70 0 c27
-10 18 -25 -11 -19 l-28 5 28 -11 c18 -7 27 -17 25 -27 -4 -21 -36 -28 -52
-12 -8 9 -6 11 11 6 12 -4 24 -3 27 3 3 5 -5 12 -19 15 -26 7 -34 31 -12 39 6
3 13 6 14 6 1 1 8 -2 17 -5z m207 -37 c6 -37 6 -38 -24 -35 -39 4 -46 24 -13
39 14 7 23 16 20 20 -3 5 -15 4 -27 -3 -20 -10 -21 -10 -8 6 22 27 45 15 52
-27z m66 26 c3 -7 -4 -10 -19 -7 -20 5 -19 3 5 -11 16 -9 26 -22 24 -28 -5
-17 -49 -15 -55 3 -5 13 -3 13 12 1 9 -8 20 -11 23 -7 7 7 -9 21 -31 29 -5 2
-7 11 -3 21 7 19 38 18 44 -1z m210 0 c3 -7 -4 -10 -19 -7 -20 5 -19 3 5 -11
16 -9 26 -22 24 -28 -5 -17 -49 -15 -55 3 -5 13 -3 13 12 1 9 -8 20 -11 23 -7
7 7 -9 21 -31 29 -5 2 -7 11 -3 21 7 19 38 18 44 -1z m661 0 c6 -11 6 -28 1
-41 -12 -31 -53 -27 -57 6 -6 43 38 70 56 35z m73 1 c11 -13 9 -14 -14 -9 -23
6 -27 4 -27 -13 0 -26 19 -39 31 -21 4 7 11 10 15 6 12 -11 -12 -29 -32 -25
-31 6 -32 78 -1 78 8 0 20 -7 28 -16z m134 -16 c4 12 11 22 15 22 5 0 3 -16
-3 -35 -6 -19 -13 -35 -17 -35 -10 0 -30 47 -30 68 1 10 6 5 15 -13 13 -29 14
-29 20 -7z m83 2 c2 -14 8 -30 13 -36 6 -7 -2 -11 -26 -12 -28 -1 -35 2 -35
17 0 11 9 21 21 24 12 3 18 10 14 17 -5 8 -11 8 -21 -1 -14 -11 -20 1 -7 15
14 14 38 0 41 -24z m62 18 c0 -4 -4 -8 -10 -8 -5 0 -10 -15 -11 -32 0 -31 -1
-32 -10 -9 -12 29 -4 58 16 58 8 0 15 -4 15 -9z m101 -31 c6 -37 6 -38 -24
-35 -40 4 -45 23 -11 41 16 8 22 17 16 21 -6 3 -13 2 -17 -4 -3 -5 -11 -10
-17 -10 -6 0 -6 6 2 15 22 26 44 13 51 -28z m187 26 c6 -11 6 -28 1 -41 -12
-31 -53 -27 -57 6 -6 43 38 70 56 35z m69 0 c3 -7 -4 -10 -19 -7 -21 5 -20 4
4 -11 32 -18 28 -45 -8 -45 -16 0 -24 5 -23 18 0 10 3 12 6 5 5 -14 33 -18 33
-5 0 5 -12 14 -26 21 -22 10 -24 14 -13 27 14 17 40 15 46 -3z m111 5 c7 -7
12 -21 12 -32 0 -16 7 -21 30 -23 17 -1 30 2 30 7 0 6 -6 10 -14 10 -7 0 -19
7 -27 16 -10 13 -10 17 2 25 18 11 41 8 46 -8 3 -7 -4 -10 -19 -7 l-23 5 23
-12 c12 -7 22 -20 22 -30 0 -15 -9 -17 -65 -17 -55 1 -65 3 -65 18 0 10 9 20
20 23 11 3 20 10 20 16 0 9 -5 9 -20 1 -12 -6 -20 -7 -20 -1 0 8 15 18 31 20
3 1 10 -4 17 -11z m192 -2 c17 -21 8 -60 -14 -64 -18 -4 -46 21 -46 39 0 10
29 39 39 39 5 0 14 -7 21 -14z m135 -18 c4 12 12 22 17 22 6 0 7 -8 3 -17 -4
-10 -10 -26 -12 -35 -3 -10 -9 -18 -13 -18 -9 0 -30 47 -30 68 1 10 6 5 15
-13 13 -29 14 -29 20 -7z m273 23 c8 -5 12 -21 10 -37 -2 -23 -8 -29 -28 -29
-18 0 -26 6 -28 23 -3 22 13 52 27 52 3 0 12 -4 19 -9z m80 -3 c8 -8 15 -8 26
2 16 13 46 7 46 -9 0 -5 -10 -7 -22 -4 -19 3 -19 2 5 -12 34 -19 31 -39 -6
-43 -21 -3 -27 1 -26 15 0 10 3 13 6 6 5 -15 33 -18 33 -4 0 9 -71 41 -90 41
-14 0 -12 -37 2 -46 6 -4 14 -2 16 4 2 7 8 12 13 12 4 0 6 -7 3 -15 -9 -22
-41 -18 -54 5 -20 38 19 77 48 48z m183 -4 c11 -13 9 -14 -14 -9 -23 6 -27 4
-27 -13 0 -26 19 -39 31 -21 4 7 11 10 15 6 12 -11 -12 -29 -32 -25 -31 6 -32
78 -1 78 8 0 20 -7 28 -16z m74 -24 c0 -31 -3 -35 -25 -35 -29 0 -40 36 -19
61 21 26 44 12 44 -26z m82 -11 c1 -33 1 -33 -5 -5 -9 38 -32 47 -32 12 0 -13
-4 -28 -10 -31 -6 -4 -10 10 -10 34 0 38 1 39 28 32 22 -6 27 -13 29 -42z
m114 8 c6 -37 6 -38 -24 -35 -39 4 -46 25 -12 38 14 5 23 15 20 20 -5 8 -11 7
-21 -1 -14 -11 -20 1 -7 15 17 16 38 -1 44 -37z m187 31 c15 -19 3 -68 -17
-68 -21 0 -41 19 -41 40 0 33 38 52 58 28z m62 2 c0 -5 -4 -10 -10 -10 -5 0
-10 -13 -10 -30 0 -16 -4 -30 -10 -30 -5 0 -10 18 -10 40 0 33 3 40 20 40 11
0 20 -4 20 -10z m1208 -2 c20 -20 14 -38 -14 -38 -15 0 -23 -4 -19 -10 4 -6
16 -8 27 -4 14 4 18 2 14 -5 -15 -24 -66 -5 -66 25 0 14 27 44 39 44 4 0 12
-5 19 -12z m66 6 c9 -3 16 -14 15 -23 0 -10 -2 -11 -6 -3 -6 16 -30 15 -36 -1
-3 -8 -1 -20 3 -27 7 -11 11 -11 26 1 15 12 17 12 12 -1 -2 -8 -14 -16 -26
-18 -26 -4 -41 40 -22 63 14 17 13 17 34 9z m70 0 c24 -9 19 -26 -5 -19 -15 5
-19 4 -15 -4 4 -6 14 -11 22 -11 8 0 14 -9 14 -20 0 -15 -7 -20 -24 -20 -14 0
-28 5 -31 10 -4 7 2 9 19 4 15 -3 26 -2 26 4 0 5 -11 13 -25 16 -26 7 -34 31
-12 39 6 3 13 6 14 6 1 1 8 -2 17 -5z m167 -38 c6 -36 5 -37 -24 -34 -39 4
-46 25 -13 38 31 11 35 25 6 17 -22 -6 -28 8 -7 16 23 10 32 1 38 -37z m70 28
c11 -13 9 -15 -17 -9 l-29 6 28 -16 c16 -9 26 -22 24 -28 -5 -17 -37 -21 -51
-7 -8 9 -6 11 12 5 12 -3 22 -2 22 4 0 5 -9 13 -20 16 -31 10 -24 40 11 44 4
1 12 -6 20 -15z m-7043 -1 c-115 -2 -301 -2 -415 0 -115 1 -21 2 207 2 228 0
322 -1 208 -2z m1095 0 c-7 -2 -21 -2 -30 0 -10 3 -4 5 12 5 17 0 24 -2 18 -5z
m363 -111 l0 -112 -3 109 -4 110 -39 4 -40 4 42 -1 43 -1 1 -113z m1079 46
c-11 -46 -20 -32 -16 24 3 45 5 49 13 29 5 -14 6 -37 3 -53z m545 37 c0 -19
-4 -35 -10 -35 -5 0 -10 16 -10 35 0 19 5 35 10 35 6 0 10 -16 10 -35z m68 -2
l-1 -38 -4 33 c-5 39 -26 38 -31 -1 -5 -39 -22 -33 -22 8 0 32 2 35 30 35 28
0 30 -2 28 -37z m42 -3 c0 -15 -3 -35 -6 -44 -12 -31 -19 -15 -16 34 4 52 22
60 22 10z m450 5 c0 -19 -4 -35 -10 -35 -5 0 -10 16 -10 35 0 19 5 35 10 35 6
0 10 -16 10 -35z m718 -2 c2 -19 -1 -33 -7 -33 -6 0 -11 14 -11 31 0 38 -24
35 -28 -4 -5 -40 -23 -32 -20 8 2 34 4 36 33 33 26 -3 30 -7 33 -35z m142 8
c0 -17 -4 -33 -10 -36 -6 -4 -10 8 -10 29 0 20 5 36 10 36 6 0 10 -13 10 -29z
m68 -8 l-1 -38 -4 33 c-5 39 -26 38 -31 -1 -5 -39 -22 -33 -22 8 0 32 2 35 30
35 28 0 30 -2 28 -37z m681 0 c0 -31 -2 -34 -9 -18 -12 28 -12 55 0 55 6 0 10
-17 9 -37z m79 0 c2 -19 -1 -33 -7 -33 -6 0 -11 14 -11 31 0 39 -23 34 -30 -7
-4 -22 -7 -25 -12 -12 -4 9 -4 26 -1 38 4 16 12 20 32 18 21 -2 27 -9 29 -35z
m-4791 -50 c-2 -16 -4 -3 -4 27 0 30 2 43 4 28 2 -16 2 -40 0 -55z m243 24 l0
-54 -30 5 c-50 7 -49 72 1 72 11 0 19 7 19 15 0 8 2 15 5 15 3 0 5 -24 5 -53z
m5687 20 c-2 -6 -9 -12 -15 -13 -7 -1 -8 0 -2 3 8 3 7 9 -1 19 -10 12 -9 13 5
8 9 -4 15 -11 13 -17z m-6200 -84 c-2 -21 -4 -6 -4 32 0 39 2 55 4 38 2 -18 2
-50 0 -70z m351 48 c-2 -20 -9 -26 -28 -26 -32 0 -41 42 -14 62 24 17 46 -2
42 -36z m69 37 c6 -7 12 -25 15 -39 4 -23 1 -26 -29 -27 -27 -1 -33 2 -33 18
0 13 7 20 20 20 11 0 20 5 20 11 0 6 -9 9 -20 6 -22 -6 -28 8 -7 16 20 8 24 8
34 -5z m7025 5 c-40 -2 -103 -2 -140 0 -37 2 -4 3 73 3 77 0 107 -2 67 -3z
m-8335 -105 c-2 -18 -4 -4 -4 32 0 36 2 50 4 33 2 -18 2 -48 0 -65z m7100 5
c-2 -16 -4 -3 -4 27 0 30 2 43 4 28 2 -16 2 -40 0 -55z m-4279 40 c-10 -2 -28
-2 -40 0 -13 2 -5 4 17 4 22 1 32 -1 23 -4z m-3210 -105 l357 -3 -354 -2
c-319 -3 -356 -2 -373 13 -10 10 -18 22 -18 28 0 6 7 0 16 -12 15 -22 16 -22
372 -24z m1316 3 c-2 -3 -12 3 -22 13 -16 17 -16 18 5 5 12 -7 20 -15 17 -18z
m726 14 c-7 -8 -17 -15 -23 -15 -6 0 -2 7 9 15 25 19 30 19 14 0z m-257 -22
c-18 -2 -48 -2 -65 0 -18 2 -4 4 32 4 36 0 50 -2 33 -4z m1868 -16 c-10 -9
-11 -8 -5 6 3 10 9 15 12 12 3 -3 0 -11 -7 -18z m4599 -2 c-7 -8 -17 -15 -23
-15 -6 0 -2 7 9 15 25 19 30 19 14 0z m-4797 -12 c-101 -2 -265 -2 -365 0
-101 1 -19 2 182 2 201 0 283 -1 183 -2z m4629 0 c-40 -2 -103 -2 -140 0 -37
2 -4 3 73 3 77 0 107 -2 67 -3z m-4798 -29 c10 -25 7 -44 -9 -60 -18 -18 -18
-14 -5 21 14 37 2 50 -21 23 l-20 -23 17 28 c19 31 29 34 38 11z m-413 -77
l384 -2 -389 0 c-338 0 -390 2 -393 15 -3 11 -2 12 4 3 7 -10 102 -13 394 -16z"/>
<path d="M8610 2481 c0 -26 5 -41 13 -41 25 0 39 18 35 46 -2 21 -9 30 -25 32
-21 3 -23 -1 -23 -37z"/>
<path d="M8707 2477 c-7 -19 8 -41 22 -33 16 10 14 46 -3 46 -8 0 -16 -6 -19
-13z"/>
<path d="M8935 2480 c3 -5 10 -10 16 -10 5 0 9 5 9 10 0 6 -7 10 -16 10 -8 0
-12 -4 -9 -10z"/>
<path d="M8930 2450 c0 -5 4 -10 9 -10 6 0 13 5 16 10 3 6 -1 10 -9 10 -9 0
-16 -4 -16 -10z"/>
<path d="M9245 2480 c3 -5 10 -10 16 -10 5 0 9 5 9 10 0 6 -7 10 -16 10 -8 0
-12 -4 -9 -10z"/>
<path d="M3133 2294 c-8 -21 13 -42 28 -27 13 13 5 43 -11 43 -6 0 -13 -7 -17
-16z"/>
<path d="M3215 2300 c-3 -5 3 -10 15 -10 12 0 18 5 15 10 -3 6 -10 10 -15 10
-5 0 -12 -4 -15 -10z"/>
<path d="M3437 2304 c-15 -15 -7 -45 11 -42 9 2 17 12 17 22 0 20 -16 31 -28
20z"/>
<path d="M3273 2134 c-7 -18 11 -39 26 -30 17 11 13 46 -4 46 -9 0 -18 -7 -22
-16z"/>
<path d="M10540 2005 c0 -8 9 -15 20 -15 11 0 20 7 20 15 0 8 -9 15 -20 15
-11 0 -20 -7 -20 -15z"/>
<path d="M12773 1974 c-8 -21 13 -42 28 -27 13 13 5 43 -11 43 -6 0 -13 -7
-17 -16z"/>
<path d="M10681 1991 c-14 -9 -12 -44 3 -45 5 -1 14 7 20 16 13 21 -3 41 -23
29z"/>
<path d="M10828 1983 c6 -2 18 -2 25 0 6 3 1 5 -13 5 -14 0 -19 -2 -12 -5z"/>
<path d="M10828 1948 c9 -9 15 -9 24 0 9 9 7 12 -12 12 -19 0 -21 -3 -12 -12z"/>
<path d="M10905 1990 c-3 -5 1 -10 10 -10 9 0 13 5 10 10 -3 6 -8 10 -10 10
-2 0 -7 -4 -10 -10z"/>
<path d="M10975 1990 c-3 -5 1 -10 10 -10 9 0 13 5 10 10 -3 6 -8 10 -10 10
-2 0 -7 -4 -10 -10z"/>
<path d="M11152 1968 c2 -13 8 -23 13 -23 6 0 11 10 13 23 2 15 -2 22 -13 22
-11 0 -15 -7 -13 -22z"/>
<path d="M11155 1920 c4 -6 11 -8 16 -5 14 9 11 15 -7 15 -8 0 -12 -5 -9 -10z"/>
<path d="M12530 1950 c0 -5 6 -10 14 -10 8 0 18 5 21 10 3 6 -3 10 -14 10 -12
0 -21 -4 -21 -10z"/>
<path d="M12850 1950 c0 -5 4 -10 9 -10 6 0 13 5 16 10 3 6 -1 10 -9 10 -9 0
-16 -4 -16 -10z"/>
<path d="M13150 1950 c0 -5 4 -10 9 -10 6 0 13 5 16 10 3 6 -1 10 -9 10 -9 0
-16 -4 -16 -10z"/>
<path d="M13030 1810 c0 -11 7 -20 15 -20 8 0 15 9 15 20 0 11 -7 20 -15 20
-8 0 -15 -9 -15 -20z"/>
<path d="M10740 1830 c0 -5 7 -10 15 -10 8 0 15 5 15 10 0 6 -7 10 -15 10 -8
0 -15 -4 -15 -10z"/>
<path d="M11045 1830 c-3 -5 3 -10 15 -10 12 0 18 5 15 10 -3 6 -10 10 -15 10
-5 0 -12 -4 -15 -10z"/>
<path d="M12537 1834 c-15 -15 -7 -45 11 -42 9 2 17 12 17 22 0 20 -16 31 -28
20z"/>
<path d="M12737 1834 c-15 -15 -7 -45 11 -42 9 2 17 12 17 22 0 20 -16 31 -28
20z"/>
<path d="M12845 1830 c-3 -5 1 -10 9 -10 9 0 16 5 16 10 0 6 -4 10 -9 10 -6 0
-13 -4 -16 -10z"/>
<path d="M12955 1830 c-3 -5 3 -10 15 -10 12 0 18 5 15 10 -3 6 -10 10 -15 10
-5 0 -12 -4 -15 -10z"/>
<path d="M12313 1664 c-7 -18 11 -39 26 -30 17 11 13 46 -4 46 -9 0 -18 -7
-22 -16z"/>
<path d="M12858 1668 c-7 -19 2 -38 18 -38 8 0 14 10 14 25 0 26 -24 35 -32
13z"/>
<path d="M13220 1655 c0 -28 24 -34 34 -9 8 20 -1 34 -20 34 -8 0 -14 -10 -14
-25z"/>
<path d="M12390 1640 c0 -5 4 -10 9 -10 6 0 13 5 16 10 3 6 -1 10 -9 10 -9 0
-16 -4 -16 -10z"/>
<path d="M12733 1664 c-8 -21 13 -42 28 -27 13 13 5 43 -11 43 -6 0 -13 -7
-17 -16z"/>
<path d="M12948 1673 c7 -3 16 -2 19 1 4 3 -2 6 -13 5 -11 0 -14 -3 -6 -6z"/>
<path d="M12940 1640 c0 -5 7 -10 15 -10 8 0 15 5 15 10 0 6 -7 10 -15 10 -8
0 -15 -4 -15 -10z"/>
<path d="M13140 1640 c0 -5 4 -10 9 -10 6 0 13 5 16 10 3 6 -1 10 -9 10 -9 0
-16 -4 -16 -10z"/>
<path d="M13338 1673 c7 -3 16 -2 19 1 4 3 -2 6 -13 5 -11 0 -14 -3 -6 -6z"/>
<path d="M2450 1085 c0 -17 2 -18 24 -9 23 9 20 24 -4 24 -11 0 -20 -7 -20
-15z"/>
<path d="M2450 1045 c0 -11 7 -15 23 -13 12 2 22 8 22 13 0 6 -10 11 -22 13
-16 2 -23 -2 -23 -13z"/>
<path d="M2615 1060 c-8 -14 3 -30 21 -30 8 0 14 9 14 20 0 21 -24 28 -35 10z"/>
<path d="M2940 1085 c0 -8 9 -15 20 -15 11 0 20 7 20 15 0 8 -9 15 -20 15 -11
0 -20 -7 -20 -15z"/>
<path d="M2695 1060 c-8 -14 3 -30 21 -30 8 0 14 9 14 20 0 21 -24 28 -35 10z"/>
<path d="M2785 1070 c-3 -5 1 -10 10 -10 9 0 13 5 10 10 -3 6 -8 10 -10 10 -2
0 -7 -4 -10 -10z"/>
<path d="M3025 1070 c-3 -5 1 -10 9 -10 9 0 16 5 16 10 0 6 -4 10 -9 10 -6 0
-13 -4 -16 -10z"/>
<path d="M3025 1039 c-4 -6 -5 -13 -2 -16 7 -7 27 6 27 18 0 12 -17 12 -25 -2z"/>
<path d="M890 950 c0 -5 4 -10 9 -10 6 0 13 5 16 10 3 6 -1 10 -9 10 -9 0 -16
-4 -16 -10z"/>
<path d="M977 977 c-7 -19 8 -41 22 -33 16 10 14 46 -3 46 -8 0 -16 -6 -19
-13z"/>
<path d="M1053 974 c-7 -18 11 -39 26 -30 17 11 13 46 -4 46 -9 0 -18 -7 -22
-16z"/>
<path d="M5880 934 c0 -31 23 -28 28 4 2 15 -2 22 -12 22 -11 0 -16 -9 -16
-26z"/>
<path d="M4078 953 c7 -3 16 -2 19 1 4 3 -2 6 -13 5 -11 0 -14 -3 -6 -6z"/>
<path d="M4070 920 c0 -5 7 -10 15 -10 8 0 15 5 15 10 0 6 -7 10 -15 10 -8 0
-15 -4 -15 -10z"/>
<path d="M4400 920 c0 -5 6 -10 14 -10 8 0 18 5 21 10 3 6 -3 10 -14 10 -12 0
-21 -4 -21 -10z"/>
<path d="M5358 953 c7 -3 16 -2 19 1 4 3 -2 6 -13 5 -11 0 -14 -3 -6 -6z"/>
<path d="M5350 920 c0 -5 4 -10 9 -10 6 0 13 5 16 10 3 6 -1 10 -9 10 -9 0
-16 -4 -16 -10z"/>
<path d="M5640 920 c0 -5 4 -10 9 -10 6 0 13 5 16 10 3 6 -1 10 -9 10 -9 0
-16 -4 -16 -10z"/>
<path d="M5800 920 c0 -5 4 -10 9 -10 6 0 13 5 16 10 3 6 -1 10 -9 10 -9 0
-16 -4 -16 -10z"/>
<path d="M5998 953 c7 -3 16 -2 19 1 4 3 -2 6 -13 5 -11 0 -14 -3 -6 -6z"/>
<path d="M5990 920 c0 -5 4 -10 9 -10 6 0 13 5 16 10 3 6 -1 10 -9 10 -9 0
-16 -4 -16 -10z"/>
<path d="M6170 920 c0 -5 4 -10 9 -10 6 0 13 5 16 10 3 6 -1 10 -9 10 -9 0
-16 -4 -16 -10z"/>
<path d="M6368 953 c7 -3 16 -2 19 1 4 3 -2 6 -13 5 -11 0 -14 -3 -6 -6z"/>
<path d="M6368 918 c9 -9 15 -9 24 0 9 9 7 12 -12 12 -19 0 -21 -3 -12 -12z"/>
<path d="M6788 953 c7 -3 16 -2 19 1 4 3 -2 6 -13 5 -11 0 -14 -3 -6 -6z"/>
<path d="M6778 918 c9 -9 15 -9 24 0 9 9 7 12 -12 12 -19 0 -21 -3 -12 -12z"/>
<path d="M7103 944 c-7 -18 11 -39 26 -30 17 11 13 46 -4 46 -9 0 -18 -7 -22
-16z"/>
<path d="M7300 920 c0 -5 4 -10 9 -10 6 0 13 5 16 10 3 6 -1 10 -9 10 -9 0
-16 -4 -16 -10z"/>
<path d="M7498 953 c7 -3 16 -2 19 1 4 3 -2 6 -13 5 -11 0 -14 -3 -6 -6z"/>
<path d="M7495 920 c3 -5 10 -10 16 -10 5 0 9 5 9 10 0 6 -7 10 -16 10 -8 0
-12 -4 -9 -10z"/>
<path d="M8760 950 c0 -5 7 -10 15 -10 8 0 15 5 15 10 0 6 -7 10 -15 10 -8 0
-15 -4 -15 -10z"/>
<path d="M9060 920 c0 -5 4 -10 9 -10 6 0 13 5 16 10 3 6 -1 10 -9 10 -9 0
-16 -4 -16 -10z"/>
<path d="M2863 904 c-8 -20 13 -42 27 -28 12 12 3 44 -11 44 -5 0 -12 -7 -16
-16z"/>
<path d="M2703 904 c-7 -18 11 -39 26 -30 17 11 13 46 -4 46 -9 0 -18 -7 -22
-16z"/>
<path d="M2780 880 c0 -5 7 -10 15 -10 8 0 15 5 15 10 0 6 -7 10 -15 10 -8 0
-15 -4 -15 -10z"/>
</g>
</svg>
